<mxfile host="65bd71144e">
    <diagram id="o9bBFYGlB4CCGzcZKvzJ" name="Page-1">
        <mxGraphModel dx="3510" dy="2897" grid="1" gridSize="10" guides="1" tooltips="1" connect="1" arrows="1" fold="1" page="1" pageScale="1" pageWidth="850" pageHeight="1100" math="0" shadow="0">
            <root>
                <mxCell id="0"/>
                <mxCell id="1" parent="0"/>
                <mxCell id="21" value="Docker compose" style="swimlane;horizontal=0;whiteSpace=wrap;html=1;" parent="1" vertex="1">
                    <mxGeometry x="-550" y="100" width="1600" height="820" as="geometry"/>
                </mxCell>
                <mxCell id="60" value="" style="endArrow=classic;html=1;entryX=0;entryY=1;entryDx=0;entryDy=0;fillColor=#d5e8d4;strokeColor=#82b366;strokeWidth=4;entryPerimeter=0;exitX=0;exitY=0;exitDx=0;exitDy=0;" edge="1" parent="21" source="111" target="16">
                    <mxGeometry width="50" height="50" relative="1" as="geometry">
                        <mxPoint x="280" y="450" as="sourcePoint"/>
                        <mxPoint x="270" y="340" as="targetPoint"/>
                    </mxGeometry>
                </mxCell>
                <mxCell id="58" value="" style="endArrow=classic;html=1;entryX=0.25;entryY=1;entryDx=0;entryDy=0;fillColor=#d5e8d4;strokeColor=#82b366;strokeWidth=4;exitX=0;exitY=0;exitDx=0;exitDy=0;" edge="1" parent="21" source="112" target="14">
                    <mxGeometry width="50" height="50" relative="1" as="geometry">
                        <mxPoint x="730" y="440" as="sourcePoint"/>
                        <mxPoint x="780" y="300" as="targetPoint"/>
                    </mxGeometry>
                </mxCell>
                <mxCell id="15" value="nginx container" style="swimlane;whiteSpace=wrap;html=1;" parent="21" vertex="1">
                    <mxGeometry x="160" y="40" width="300" height="220" as="geometry"/>
                </mxCell>
                <mxCell id="104" style="edgeStyle=none;html=1;exitX=0.5;exitY=1;exitDx=0;exitDy=0;exitPerimeter=0;entryX=0.75;entryY=1;entryDx=0;entryDy=0;strokeWidth=4;fillColor=#f8cecc;strokeColor=#b85450;" edge="1" parent="15" source="16" target="15">
                    <mxGeometry relative="1" as="geometry"/>
                </mxCell>
                <mxCell id="105" style="edgeStyle=none;html=1;exitX=0;exitY=1;exitDx=0;exitDy=0;exitPerimeter=0;entryX=1;entryY=1;entryDx=0;entryDy=0;fillColor=#d5e8d4;strokeColor=#82b366;strokeWidth=4;" edge="1" parent="15" source="16" target="32">
                    <mxGeometry relative="1" as="geometry"/>
                </mxCell>
                <mxCell id="16" value="nginx (web server)" style="shape=card;whiteSpace=wrap;html=1;" parent="15" vertex="1">
                    <mxGeometry x="200" y="60" width="80" height="100" as="geometry"/>
                </mxCell>
                <mxCell id="32" value="port: 443" style="whiteSpace=wrap;html=1;align=center;verticalAlign=middle;treeFolding=1;treeMoving=1;newEdgeStyle={&quot;edgeStyle&quot;:&quot;elbowEdgeStyle&quot;,&quot;startArrow&quot;:&quot;none&quot;,&quot;endArrow&quot;:&quot;none&quot;};" parent="15" vertex="1">
                    <mxGeometry x="20" y="50" width="100" height="60" as="geometry"/>
                </mxCell>
                <mxCell id="34" value="port: 80" style="whiteSpace=wrap;html=1;align=center;verticalAlign=middle;treeFolding=1;treeMoving=1;newEdgeStyle={&quot;edgeStyle&quot;:&quot;elbowEdgeStyle&quot;,&quot;startArrow&quot;:&quot;none&quot;,&quot;endArrow&quot;:&quot;none&quot;};" parent="15" vertex="1">
                    <mxGeometry x="25" y="150" width="100" height="60" as="geometry"/>
                </mxCell>
                <mxCell id="35" value="" style="edgeStyle=elbowEdgeStyle;elbow=vertical;sourcePerimeterSpacing=0;targetPerimeterSpacing=0;startArrow=none;endArrow=none;rounded=0;curved=0;" parent="15" target="34" edge="1">
                    <mxGeometry relative="1" as="geometry">
                        <mxPoint x="-110" y="-90" as="sourcePoint"/>
                        <Array as="points">
                            <mxPoint x="-30" y="130"/>
                        </Array>
                    </mxGeometry>
                </mxCell>
                <mxCell id="103" style="html=1;startArrow=none;endArrow=classic;exitX=1;exitY=0.25;exitDx=0;exitDy=0;entryX=0;entryY=0;entryDx=0;entryDy=65;entryPerimeter=0;strokeWidth=4;endFill=1;fillColor=#f8cecc;strokeColor=#b85450;" edge="1" parent="15" source="32" target="16">
                    <mxGeometry relative="1" as="geometry"/>
                </mxCell>
                <mxCell id="14" value="backend container" style="swimlane;whiteSpace=wrap;html=1;" parent="21" vertex="1">
                    <mxGeometry x="620" y="30" width="250" height="200" as="geometry"/>
                </mxCell>
                <mxCell id="17" value="backend (business logic)" style="shape=card;whiteSpace=wrap;html=1;" parent="14" vertex="1">
                    <mxGeometry x="20" y="50" width="80" height="100" as="geometry"/>
                </mxCell>
                <mxCell id="38" value="port 8080" style="whiteSpace=wrap;html=1;align=center;verticalAlign=middle;treeFolding=1;treeMoving=1;newEdgeStyle={&quot;edgeStyle&quot;:&quot;elbowEdgeStyle&quot;,&quot;startArrow&quot;:&quot;none&quot;,&quot;endArrow&quot;:&quot;none&quot;};" parent="14" vertex="1">
                    <mxGeometry x="140" y="90" width="100" height="60" as="geometry"/>
                </mxCell>
                <mxCell id="39" value="" style="edgeStyle=elbowEdgeStyle;elbow=vertical;sourcePerimeterSpacing=0;targetPerimeterSpacing=0;startArrow=none;endArrow=none;rounded=0;curved=0;" parent="14" target="38" edge="1">
                    <mxGeometry relative="1" as="geometry">
                        <mxPoint x="260" y="-70" as="sourcePoint"/>
                        <Array as="points">
                            <mxPoint x="190" y="50"/>
                        </Array>
                    </mxGeometry>
                </mxCell>
                <mxCell id="2" value="Postgres container" style="swimlane;whiteSpace=wrap;html=1;" parent="21" vertex="1">
                    <mxGeometry x="895" y="30" width="200" height="200" as="geometry"/>
                </mxCell>
                <mxCell id="3" value="database" style="shape=datastore;whiteSpace=wrap;html=1;" parent="2" vertex="1">
                    <mxGeometry x="70" y="80" width="60" height="60" as="geometry"/>
                </mxCell>
                <mxCell id="4" value="PGAdmin Container" style="swimlane;whiteSpace=wrap;html=1;" parent="21" vertex="1">
                    <mxGeometry x="1170" y="30" width="280" height="200" as="geometry"/>
                </mxCell>
                <mxCell id="13" value="pgadmin (server)" style="shape=card;whiteSpace=wrap;html=1;" parent="4" vertex="1">
                    <mxGeometry x="60" y="60" width="80" height="100" as="geometry"/>
                </mxCell>
                <mxCell id="36" value="port 5050" style="whiteSpace=wrap;html=1;align=center;verticalAlign=middle;treeFolding=1;treeMoving=1;newEdgeStyle={&quot;edgeStyle&quot;:&quot;elbowEdgeStyle&quot;,&quot;startArrow&quot;:&quot;none&quot;,&quot;endArrow&quot;:&quot;none&quot;};" parent="4" vertex="1">
                    <mxGeometry x="170" y="100" width="100" height="60" as="geometry"/>
                </mxCell>
                <mxCell id="37" value="" style="edgeStyle=elbowEdgeStyle;elbow=vertical;sourcePerimeterSpacing=0;targetPerimeterSpacing=0;startArrow=none;endArrow=none;rounded=0;curved=0;" parent="4" target="36" edge="1">
                    <mxGeometry relative="1" as="geometry">
                        <mxPoint x="410" y="-80" as="sourcePoint"/>
                        <Array as="points">
                            <mxPoint x="300" y="70"/>
                        </Array>
                    </mxGeometry>
                </mxCell>
                <mxCell id="19" value="Volumes" style="swimlane;whiteSpace=wrap;html=1;" parent="21" vertex="1">
                    <mxGeometry x="930" y="430" width="330" height="370" as="geometry"/>
                </mxCell>
                <mxCell id="8" value="backend-static-data" style="shape=note;whiteSpace=wrap;html=1;backgroundOutline=1;darkOpacity=0.05;" parent="19" vertex="1">
                    <mxGeometry x="20" y="35" width="80" height="100" as="geometry"/>
                </mxCell>
                <mxCell id="6" value="habrdb-data" style="shape=note;whiteSpace=wrap;html=1;backgroundOutline=1;darkOpacity=0.05;" parent="19" vertex="1">
                    <mxGeometry x="130" y="135" width="80" height="100" as="geometry"/>
                </mxCell>
                <mxCell id="7" value="pgadmin-data" style="shape=note;whiteSpace=wrap;html=1;backgroundOutline=1;darkOpacity=0.05;" parent="19" vertex="1">
                    <mxGeometry x="240" y="235" width="80" height="100" as="geometry"/>
                </mxCell>
                <mxCell id="18" value="Networks" style="swimlane;whiteSpace=wrap;html=1;" parent="21" vertex="1">
                    <mxGeometry x="340" y="390" width="310" height="230" as="geometry"/>
                </mxCell>
                <mxCell id="9" value="postgres" style="whiteSpace=wrap;html=1;align=center;verticalAlign=middle;treeFolding=1;treeMoving=1;newEdgeStyle={&quot;edgeStyle&quot;:&quot;elbowEdgeStyle&quot;,&quot;startArrow&quot;:&quot;none&quot;,&quot;endArrow&quot;:&quot;none&quot;};" parent="18" vertex="1">
                    <mxGeometry x="190" y="100" width="100" height="60" as="geometry"/>
                </mxCell>
                <mxCell id="10" value="" style="edgeStyle=elbowEdgeStyle;elbow=vertical;sourcePerimeterSpacing=0;targetPerimeterSpacing=0;startArrow=none;endArrow=none;rounded=0;curved=0;" parent="18" target="9" edge="1">
                    <mxGeometry relative="1" as="geometry">
                        <mxPoint x="390" y="50" as="sourcePoint"/>
                    </mxGeometry>
                </mxCell>
                <mxCell id="11" value="cow_mobile_backend" style="whiteSpace=wrap;html=1;align=center;verticalAlign=middle;treeFolding=1;treeMoving=1;newEdgeStyle={&quot;edgeStyle&quot;:&quot;elbowEdgeStyle&quot;,&quot;startArrow&quot;:&quot;none&quot;,&quot;endArrow&quot;:&quot;none&quot;};" parent="18" vertex="1">
                    <mxGeometry x="30" y="100" width="140" height="60" as="geometry"/>
                </mxCell>
                <mxCell id="12" value="" style="edgeStyle=elbowEdgeStyle;elbow=vertical;sourcePerimeterSpacing=0;targetPerimeterSpacing=0;startArrow=none;endArrow=none;rounded=0;curved=0;" parent="18" target="11" edge="1">
                    <mxGeometry relative="1" as="geometry">
                        <mxPoint x="-60" y="60" as="sourcePoint"/>
                    </mxGeometry>
                </mxCell>
                <mxCell id="24" value="" style="curved=1;endArrow=classic;html=1;exitX=0.5;exitY=0;exitDx=0;exitDy=0;exitPerimeter=0;entryX=0.5;entryY=1;entryDx=0;entryDy=0;" parent="21" source="6" target="2" edge="1">
                    <mxGeometry width="50" height="50" relative="1" as="geometry">
                        <mxPoint x="980" y="440" as="sourcePoint"/>
                        <mxPoint x="1030" y="390" as="targetPoint"/>
                        <Array as="points">
                            <mxPoint x="1030" y="440"/>
                            <mxPoint x="1070" y="350"/>
                        </Array>
                    </mxGeometry>
                </mxCell>
                <mxCell id="25" value="" style="curved=1;endArrow=classic;html=1;exitX=0;exitY=0;exitDx=25;exitDy=0;exitPerimeter=0;entryX=0.5;entryY=1;entryDx=0;entryDy=0;" parent="21" source="7" target="4" edge="1">
                    <mxGeometry width="50" height="50" relative="1" as="geometry">
                        <mxPoint x="930" y="360" as="sourcePoint"/>
                        <mxPoint x="980" y="310" as="targetPoint"/>
                        <Array as="points">
                            <mxPoint x="1140" y="450"/>
                            <mxPoint x="1200" y="370"/>
                            <mxPoint x="1340" y="340"/>
                        </Array>
                    </mxGeometry>
                </mxCell>
                <mxCell id="26" value="" style="curved=1;endArrow=classic;html=1;exitX=0;exitY=0;exitDx=25;exitDy=0;exitPerimeter=0;entryX=0.5;entryY=1;entryDx=0;entryDy=0;" parent="21" source="8" target="14" edge="1">
                    <mxGeometry width="50" height="50" relative="1" as="geometry">
                        <mxPoint x="930" y="280" as="sourcePoint"/>
                        <mxPoint x="980" y="230" as="targetPoint"/>
                        <Array as="points">
                            <mxPoint x="880" y="250"/>
                            <mxPoint x="810" y="250"/>
                            <mxPoint x="750" y="260"/>
                        </Array>
                    </mxGeometry>
                </mxCell>
                <mxCell id="28" value="" style="endArrow=classicThin;html=1;entryX=0.25;entryY=1;entryDx=0;entryDy=0;dashed=1;dashPattern=8 8;endFill=1;exitX=1;exitY=0.5;exitDx=0;exitDy=0;" parent="21" target="4" edge="1" source="112">
                    <mxGeometry width="50" height="50" relative="1" as="geometry">
                        <mxPoint x="730" y="440" as="sourcePoint"/>
                        <mxPoint x="960" y="340" as="targetPoint"/>
                    </mxGeometry>
                </mxCell>
                <mxCell id="33" value="" style="edgeStyle=elbowEdgeStyle;elbow=vertical;sourcePerimeterSpacing=0;targetPerimeterSpacing=0;startArrow=none;endArrow=none;rounded=0;curved=0;" parent="21" target="32" edge="1">
                    <mxGeometry relative="1" as="geometry">
                        <mxPoint x="90" y="-50" as="sourcePoint"/>
                        <Array as="points">
                            <mxPoint x="160" y="80"/>
                        </Array>
                    </mxGeometry>
                </mxCell>
                <mxCell id="52" value="" style="endArrow=classic;html=1;exitX=0.75;exitY=1;exitDx=0;exitDy=0;fillColor=#f8cecc;strokeColor=#b85450;strokeWidth=4;entryX=1;entryY=0.5;entryDx=0;entryDy=0;" edge="1" parent="21" source="15" target="111">
                    <mxGeometry width="50" height="50" relative="1" as="geometry">
                        <mxPoint x="280" y="360" as="sourcePoint"/>
                        <mxPoint x="280" y="450" as="targetPoint"/>
                    </mxGeometry>
                </mxCell>
                <mxCell id="53" value="" style="endArrow=classic;html=1;entryX=0;entryY=0.5;entryDx=0;entryDy=0;fillColor=#f8cecc;strokeColor=#b85450;strokeWidth=4;exitX=1;exitY=0.5;exitDx=0;exitDy=0;" edge="1" parent="21" source="111" target="14">
                    <mxGeometry width="50" height="50" relative="1" as="geometry">
                        <mxPoint x="280" y="450" as="sourcePoint"/>
                        <mxPoint x="570" y="280" as="targetPoint"/>
                    </mxGeometry>
                </mxCell>
                <mxCell id="54" value="" style="endArrow=classic;html=1;exitX=0;exitY=0.5;exitDx=0;exitDy=0;fillColor=#f8cecc;strokeColor=#b85450;strokeWidth=4;entryX=1;entryY=0;entryDx=0;entryDy=0;" edge="1" parent="21" source="14" target="112">
                    <mxGeometry width="50" height="50" relative="1" as="geometry">
                        <mxPoint x="620" y="350" as="sourcePoint"/>
                        <mxPoint x="730" y="440" as="targetPoint"/>
                    </mxGeometry>
                </mxCell>
                <mxCell id="55" value="" style="endArrow=classic;html=1;entryX=0.25;entryY=1;entryDx=0;entryDy=0;fillColor=#f8cecc;strokeColor=#b85450;strokeWidth=4;exitX=1;exitY=0;exitDx=0;exitDy=0;" edge="1" parent="21" source="112" target="2">
                    <mxGeometry width="50" height="50" relative="1" as="geometry">
                        <mxPoint x="730" y="440" as="sourcePoint"/>
                        <mxPoint x="930" y="270" as="targetPoint"/>
                    </mxGeometry>
                </mxCell>
                <mxCell id="56" value="" style="endArrow=classic;html=1;exitX=1;exitY=1;exitDx=0;exitDy=0;fillColor=#d5e8d4;strokeColor=#82b366;strokeWidth=4;entryX=0;entryY=0;entryDx=0;entryDy=0;" edge="1" parent="21" source="2" target="112">
                    <mxGeometry width="50" height="50" relative="1" as="geometry">
                        <mxPoint x="1090" y="360" as="sourcePoint"/>
                        <mxPoint x="730" y="440" as="targetPoint"/>
                    </mxGeometry>
                </mxCell>
                <mxCell id="59" value="" style="endArrow=classic;html=1;exitX=0.25;exitY=1;exitDx=0;exitDy=0;fillColor=#d5e8d4;strokeColor=#82b366;strokeWidth=4;entryX=0;entryY=0;entryDx=0;entryDy=0;" edge="1" parent="21" source="14" target="111">
                    <mxGeometry width="50" height="50" relative="1" as="geometry">
                        <mxPoint x="540" y="330" as="sourcePoint"/>
                        <mxPoint x="280" y="450" as="targetPoint"/>
                    </mxGeometry>
                </mxCell>
                <mxCell id="111" value="" style="ellipse;whiteSpace=wrap;html=1;aspect=fixed;" vertex="1" parent="21">
                    <mxGeometry x="270" y="430" width="20" height="20" as="geometry"/>
                </mxCell>
                <mxCell id="112" value="" style="ellipse;whiteSpace=wrap;html=1;aspect=fixed;" vertex="1" parent="21">
                    <mxGeometry x="720" y="420" width="20" height="20" as="geometry"/>
                </mxCell>
                <mxCell id="44" style="edgeStyle=none;html=1;exitX=0;exitY=0.75;exitDx=0;exitDy=0;entryX=1;entryY=0.5;entryDx=0;entryDy=0;" parent="1" source="40" target="42" edge="1">
                    <mxGeometry relative="1" as="geometry"/>
                </mxCell>
                <mxCell id="40" value="user" style="shape=actor;whiteSpace=wrap;html=1;" parent="1" vertex="1">
                    <mxGeometry x="-130" y="-180" width="90" height="90" as="geometry"/>
                </mxCell>
                <mxCell id="47" style="edgeStyle=none;html=1;exitX=0;exitY=0.5;exitDx=0;exitDy=0;entryX=0.5;entryY=0;entryDx=0;entryDy=0;" parent="1" source="42" edge="1" target="109">
                    <mxGeometry relative="1" as="geometry">
                        <mxPoint x="-500" y="50" as="targetPoint"/>
                    </mxGeometry>
                </mxCell>
                <mxCell id="42" value="Frontend (http)" style="shape=process;whiteSpace=wrap;html=1;backgroundOutline=1;" parent="1" vertex="1">
                    <mxGeometry x="-425" y="-220" width="170" height="70" as="geometry"/>
                </mxCell>
                <mxCell id="62" style="edgeStyle=none;html=1;exitX=0.5;exitY=1;exitDx=0;exitDy=0;endArrow=none;endFill=0;startArrow=classic;startFill=1;fillColor=#d5e8d4;strokeColor=#82b366;strokeWidth=4;entryX=1;entryY=0;entryDx=0;entryDy=0;" edge="1" parent="1" source="43" target="108">
                    <mxGeometry relative="1" as="geometry">
                        <mxPoint x="-460" y="50" as="targetPoint"/>
                    </mxGeometry>
                </mxCell>
                <mxCell id="43" value="Frontend (https)" style="shape=process;whiteSpace=wrap;html=1;backgroundOutline=1;" parent="1" vertex="1">
                    <mxGeometry x="-425" y="-140" width="170" height="70" as="geometry"/>
                </mxCell>
                <mxCell id="50" value="" style="endArrow=classic;html=1;exitX=0;exitY=0.5;exitDx=0;exitDy=0;fillColor=#f8cecc;strokeColor=#b85450;strokeWidth=4;entryX=0;entryY=0;entryDx=0;entryDy=0;" edge="1" parent="1" source="43" target="108">
                    <mxGeometry width="50" height="50" relative="1" as="geometry">
                        <mxPoint x="-470" y="30" as="sourcePoint"/>
                        <mxPoint x="-460" y="50" as="targetPoint"/>
                    </mxGeometry>
                </mxCell>
                <mxCell id="51" value="" style="endArrow=classic;html=1;entryX=1;entryY=0.5;entryDx=0;entryDy=0;exitX=0;exitY=0.75;exitDx=0;exitDy=0;fillColor=#f8cecc;strokeColor=#b85450;strokeWidth=4;" edge="1" parent="1" source="40" target="43">
                    <mxGeometry width="50" height="50" relative="1" as="geometry">
                        <mxPoint x="-240" y="10" as="sourcePoint"/>
                        <mxPoint x="-190" y="-40" as="targetPoint"/>
                    </mxGeometry>
                </mxCell>
                <mxCell id="63" style="edgeStyle=none;html=1;exitX=0.5;exitY=1;exitDx=0;exitDy=0;entryX=0;entryY=0.75;entryDx=0;entryDy=0;fillColor=#d5e8d4;strokeColor=#82b366;strokeWidth=4;" edge="1" parent="1" source="43" target="40">
                    <mxGeometry relative="1" as="geometry"/>
                </mxCell>
                <mxCell id="106" value="" style="ellipse;whiteSpace=wrap;html=1;aspect=fixed;" vertex="1" parent="1">
                    <mxGeometry x="320" y="40" width="20" height="20" as="geometry"/>
                </mxCell>
                <mxCell id="107" value="" style="ellipse;whiteSpace=wrap;html=1;aspect=fixed;" vertex="1" parent="1">
                    <mxGeometry x="1020" y="30" width="20" height="20" as="geometry"/>
                </mxCell>
                <mxCell id="108" value="" style="ellipse;whiteSpace=wrap;html=1;aspect=fixed;" vertex="1" parent="1">
                    <mxGeometry x="-470" y="30" width="20" height="20" as="geometry"/>
                </mxCell>
                <mxCell id="109" value="" style="ellipse;whiteSpace=wrap;html=1;aspect=fixed;" vertex="1" parent="1">
                    <mxGeometry x="-510" y="30" width="20" height="20" as="geometry"/>
                </mxCell>
            </root>
        </mxGraphModel>
    </diagram>
</mxfile>